<svg id="f46c5bdf-420a-4f66-a842-886bf47d36b9" data-name="Layer 1" xmlns="http://www.w3.org/2000/svg" viewBox="0 0 500 500"><title>logo</title><path d="M382.32,213.87v-13.8h-41.4c0-37.2.6-102-31.8-144-21.6-31.8-48.6-44.4-73.79-45.6C203.06,9.55,170.58,33,159.85,49.1a37.77,37.77,0,0,0-6.74,22.58c0,18,14.4,32.4,33,32.4a32.65,32.65,0,0,0,32.4-32.4A33,33,0,0,0,208.56,48a25.71,25.71,0,0,0-6.23-5.07c-4.8-3.6-9.6-7.2-4.2-10.8,1.8-1.8,18-10.8,36-6,24,6,51,36.6,51,145.79v28.2h-40.2v13.8h40.2V462.26c0,10.2,0,13.8-4.8,14.4l-28.5,3.73-28.51-3.73c-4.8-.6-4.8-4.2-4.8-14.4V203.07c0-18-3-23.4-10.8-23.4-13.2.6-40.8,21-90.59,21v13.8l36.59-1.2c9,0,9,45,9,58.8V462.26c0,10.2,0,13.8-4.8,14.4l-36.59,4.8v9h261v-9l-36.6-4.8c-4.8-.6-4.8-4.2-4.8-14.4V213.87Z"/></svg>